<svg width="31" height="23" viewBox="0 0 31 23" fill="none" xmlns="http://www.w3.org/2000/svg">
<path d="M0 5C0 3.89543 0.89543 3 2 3H4C5.10457 3 6 3.89543 6 5V15C6 16.1046 6.89543 17 8 17H22C23.1046 17 24 16.1046 24 15V5C24 3.89543 24.8954 3 26 3H28C29.1046 3 30 3.89543 30 5V18C30 20.7614 27.7614 23 25 23H5C2.23858 23 0 20.7614 0 18V5Z" fill="#D9D9D9"/>
<path d="M7 3C7 1.34315 8.34315 0 10 0H20C21.6569 0 23 1.34315 23 3V14C23 14.5523 22.5523 15 22 15H8C7.44772 15 7 14.5523 7 14V3Z" fill="#D9D9D9"/>
</svg>
